<?xml version="1.0" encoding="UTF-8" standalone="no"?>
<!DOCTYPE svg PUBLIC "-//W3C//DTD SVG 1.1//EN"
 "http://www.w3.org/Graphics/SVG/1.1/DTD/svg11.dtd">
<!-- Generated by graphviz version 2.42.4 (0)
 -->
<!-- Title: alpine_dns_stuck Pages: 1 -->
<svg width="734pt" height="214pt"
 viewBox="0.00 0.00 734.01 214.00" xmlns="http://www.w3.org/2000/svg" xmlns:xlink="http://www.w3.org/1999/xlink">
<g id="graph0" class="graph" transform="scale(1 1) rotate(0) translate(4 210)">
<title>alpine_dns_stuck</title>
<g id="clust1" class="cluster">
<title>cluster_glibc</title>
<path fill="transparent" stroke="#999999" stroke-dasharray="5,2" d="M20,-119C20,-119 453.93,-119 453.93,-119 459.93,-119 465.93,-125 465.93,-131 465.93,-131 465.93,-186 465.93,-186 465.93,-192 459.93,-198 453.93,-198 453.93,-198 20,-198 20,-198 14,-198 8,-192 8,-186 8,-186 8,-131 8,-131 8,-125 14,-119 20,-119"/>
<text text-anchor="middle" x="95" y="-186" font-family="Noto Sans CJK SC" font-size="10.00">glibc 主机 (Debian/Ubuntu/RHEL)</text>
</g>
<g id="clust2" class="cluster">
<title>cluster_musl</title>
<path fill="transparent" stroke="#ff7a7a" stroke-dasharray="5,2" d="M20,-8C20,-8 450.43,-8 450.43,-8 456.43,-8 462.43,-14 462.43,-20 462.43,-20 462.43,-99 462.43,-99 462.43,-105 456.43,-111 450.43,-111 450.43,-111 20,-111 20,-111 14,-111 8,-105 8,-99 8,-99 8,-20 8,-20 8,-14 14,-8 20,-8"/>
<text text-anchor="middle" x="59.5" y="-99" font-family="Noto Sans CJK SC" font-size="10.00">Alpine / musl 容器</text>
</g>
<!-- app_g -->
<g id="node1" class="node">
<title>app_g</title>
<path fill="#e8f4ff" stroke="black" d="M58,-167C58,-167 28,-167 28,-167 22,-167 16,-161 16,-155 16,-155 16,-143 16,-143 16,-137 22,-131 28,-131 28,-131 58,-131 58,-131 64,-131 70,-137 70,-143 70,-143 70,-155 70,-155 70,-161 64,-167 58,-167"/>
<text text-anchor="middle" x="43" y="-152.2" font-family="Noto Sans CJK SC" font-size="11.00">应用</text>
<text text-anchor="middle" x="43" y="-140.2" font-family="Noto Sans CJK SC" font-size="11.00">glibc</text>
</g>
<!-- nss_g -->
<g id="node2" class="node">
<title>nss_g</title>
<path fill="#fff4d6" stroke="black" d="M240.46,-167C240.46,-167 172.46,-167 172.46,-167 166.46,-167 160.46,-161 160.46,-155 160.46,-155 160.46,-143 160.46,-143 160.46,-137 166.46,-131 172.46,-131 172.46,-131 240.46,-131 240.46,-131 246.46,-131 252.46,-137 252.46,-143 252.46,-143 252.46,-155 252.46,-155 252.46,-161 246.46,-167 240.46,-167"/>
<text text-anchor="middle" x="206.46" y="-152.2" font-family="Noto Sans CJK SC" font-size="11.00">nsswitch.conf</text>
<text text-anchor="middle" x="206.46" y="-140.2" font-family="Noto Sans CJK SC" font-size="11.00">+ nscd</text>
</g>
<!-- app_g&#45;&gt;nss_g -->
<g id="edge1" class="edge">
<title>app_g&#45;&gt;nss_g</title>
<path fill="none" stroke="black" d="M70.3,-149C91.85,-149 123.09,-149 150.11,-149"/>
<polygon fill="black" stroke="black" points="150.23,-152.5 160.23,-149 150.23,-145.5 150.23,-152.5"/>
<text text-anchor="middle" x="108" y="-152" font-family="Noto Sans CJK SC" font-size="10.00">标准链路</text>
</g>
<!-- res_g -->
<g id="node3" class="node">
<title>res_g</title>
<path fill="#fff4d6" stroke="black" d="M445.93,-171C445.93,-171 354.93,-171 354.93,-171 348.93,-171 342.93,-165 342.93,-159 342.93,-159 342.93,-139 342.93,-139 342.93,-133 348.93,-127 354.93,-127 354.93,-127 445.93,-127 445.93,-127 451.93,-127 457.93,-133 457.93,-139 457.93,-139 457.93,-159 457.93,-159 457.93,-165 451.93,-171 445.93,-171"/>
<text text-anchor="middle" x="400.43" y="-158.2" font-family="Noto Sans CJK SC" font-size="11.00">/etc/resolv.conf</text>
<text text-anchor="middle" x="400.43" y="-146.2" font-family="Noto Sans CJK SC" font-size="11.00">systemd&#45;resolved</text>
<text text-anchor="middle" x="400.43" y="-134.2" font-family="Noto Sans CJK SC" font-size="11.00">127.0.0.53</text>
</g>
<!-- nss_g&#45;&gt;res_g -->
<g id="edge2" class="edge">
<title>nss_g&#45;&gt;res_g</title>
<path fill="none" stroke="black" d="M252.47,-149C276.24,-149 305.89,-149 332.32,-149"/>
<polygon fill="black" stroke="black" points="332.66,-152.5 342.66,-149 332.66,-145.5 332.66,-152.5"/>
<text text-anchor="middle" x="304.93" y="-152" font-family="Noto Sans CJK SC" font-size="10.00">标准链路</text>
</g>
<!-- upstream_g -->
<g id="node7" class="node">
<title>upstream_g</title>
<ellipse fill="#d6f5d6" stroke="black" cx="652.47" cy="-132" rx="73.58" ry="22.76"/>
<text text-anchor="middle" x="652.47" y="-135.2" font-family="Noto Sans CJK SC" font-size="11.00">真实 DNS</text>
<text text-anchor="middle" x="652.47" y="-123.2" font-family="Noto Sans CJK SC" font-size="11.00">1.1.1.1 / 8.8.8.8</text>
</g>
<!-- res_g&#45;&gt;upstream_g -->
<g id="edge5" class="edge">
<title>res_g&#45;&gt;upstream_g</title>
<path fill="none" stroke="black" d="M458.17,-145.14C491.22,-142.89 533.47,-140.02 570.03,-137.54"/>
<polygon fill="black" stroke="black" points="570.44,-141.02 580.18,-136.85 569.96,-134.03 570.44,-141.02"/>
<text text-anchor="middle" x="518.43" y="-157" font-family="Noto Sans CJK SC" font-size="10.00">上游 DNS</text>
<text text-anchor="middle" x="518.43" y="-146" font-family="Noto Sans CJK SC" font-size="10.00">走 stub 或 unicast</text>
</g>
<!-- app_m -->
<g id="node4" class="node">
<title>app_m</title>
<path fill="#ffe8e8" stroke="black" d="M58,-68C58,-68 28,-68 28,-68 22,-68 16,-62 16,-56 16,-56 16,-44 16,-44 16,-38 22,-32 28,-32 28,-32 58,-32 58,-32 64,-32 70,-38 70,-44 70,-44 70,-56 70,-56 70,-62 64,-68 58,-68"/>
<text text-anchor="middle" x="43" y="-53.2" font-family="Noto Sans CJK SC" font-size="11.00">应用</text>
<text text-anchor="middle" x="43" y="-41.2" font-family="Noto Sans CJK SC" font-size="11.00">musl</text>
</g>
<!-- noswitch -->
<g id="node5" class="node">
<title>noswitch</title>
<path fill="#ffcccc" stroke="black" d="M266.89,-45.33C266.89,-45.33 266.89,-54.67 266.89,-54.67 266.89,-59.35 262.81,-66.31 258.74,-68.59 258.74,-68.59 239.65,-79.28 239.65,-79.28 235.57,-81.57 226.82,-83.85 222.15,-83.85 222.15,-83.85 190.78,-83.85 190.78,-83.85 186.11,-83.85 177.36,-81.57 173.28,-79.28 173.28,-79.28 154.19,-68.59 154.19,-68.59 150.11,-66.31 146.04,-59.35 146.04,-54.67 146.04,-54.67 146.04,-45.33 146.04,-45.33 146.04,-40.65 150.11,-33.69 154.19,-31.41 154.19,-31.41 173.28,-20.72 173.28,-20.72 177.36,-18.43 186.11,-16.15 190.78,-16.15 190.78,-16.15 222.15,-16.15 222.15,-16.15 226.82,-16.15 235.57,-18.43 239.65,-20.72 239.65,-20.72 258.74,-31.41 258.74,-31.41 262.81,-33.69 266.89,-40.65 266.89,-45.33"/>
<text text-anchor="middle" x="206.46" y="-59.2" font-family="Noto Sans CJK SC" font-size="11.00">无 nsswitch</text>
<text text-anchor="middle" x="206.46" y="-47.2" font-family="Noto Sans CJK SC" font-size="11.00">无 nscd</text>
<text text-anchor="middle" x="206.46" y="-35.2" font-family="Noto Sans CJK SC" font-size="11.00">无 systemd</text>
</g>
<!-- app_m&#45;&gt;noswitch -->
<g id="edge3" class="edge">
<title>app_m&#45;&gt;noswitch</title>
<path fill="none" stroke="#cc0000" d="M70.3,-50C88.13,-50 112.58,-50 135.79,-50"/>
<polygon fill="#cc0000" stroke="#cc0000" points="135.99,-53.5 145.99,-50 135.99,-46.5 135.99,-53.5"/>
<text text-anchor="middle" x="108" y="-53" font-family="Noto Sans CJK SC" font-size="10.00" fill="#cc0000">唯一链路</text>
</g>
<!-- resolv_m -->
<g id="node6" class="node">
<title>resolv_m</title>
<path fill="#ffe8e8" stroke="black" d="M442.43,-80C442.43,-80 358.43,-80 358.43,-80 352.43,-80 346.43,-74 346.43,-68 346.43,-68 346.43,-48 346.43,-48 346.43,-42 352.43,-36 358.43,-36 358.43,-36 442.43,-36 442.43,-36 448.43,-36 454.43,-42 454.43,-48 454.43,-48 454.43,-68 454.43,-68 454.43,-74 448.43,-80 442.43,-80"/>
<text text-anchor="middle" x="400.43" y="-67.2" font-family="Noto Sans CJK SC" font-size="11.00">只看</text>
<text text-anchor="middle" x="400.43" y="-55.2" font-family="Noto Sans CJK SC" font-size="11.00">/etc/resolv.conf</text>
<text text-anchor="middle" x="400.43" y="-43.2" font-family="Noto Sans CJK SC" font-size="11.00">前三 nameserver</text>
</g>
<!-- noswitch&#45;&gt;resolv_m -->
<g id="edge4" class="edge">
<title>noswitch&#45;&gt;resolv_m</title>
<path fill="none" stroke="#cc0000" d="M267.15,-52.49C289.1,-53.4 314.03,-54.44 336.27,-55.37"/>
<polygon fill="#cc0000" stroke="#cc0000" points="336.15,-58.87 346.29,-55.79 336.44,-51.87 336.15,-58.87"/>
<text text-anchor="middle" x="304.93" y="-57" font-family="Noto Sans CJK SC" font-size="10.00" fill="#cc0000">唯一链路</text>
</g>
<!-- resolv_m&#45;&gt;upstream_g -->
<g id="edge6" class="edge">
<title>resolv_m&#45;&gt;upstream_g</title>
<path fill="none" stroke="black" d="M454.59,-77.05C461.74,-79.47 468.99,-81.85 475.93,-84 511.75,-95.13 552.09,-106.26 585.07,-115"/>
<polygon fill="black" stroke="black" points="584.49,-118.47 595.05,-117.63 586.27,-111.7 584.49,-118.47"/>
<text text-anchor="middle" x="518.43" y="-110" font-family="Noto Sans CJK SC" font-size="10.00">直接发包</text>
</g>
<!-- broken -->
<g id="node8" class="node">
<title>broken</title>
<path fill="lightgrey" stroke="transparent" d="M667.47,-76C667.47,-76 637.47,-76 637.47,-76 631.47,-76 625.47,-70 625.47,-64 625.47,-64 625.47,-52 625.47,-52 625.47,-46 631.47,-40 637.47,-40 637.47,-40 667.47,-40 667.47,-40 673.47,-40 679.47,-46 679.47,-52 679.47,-52 679.47,-64 679.47,-64 679.47,-70 673.47,-76 667.47,-76"/>
<text text-anchor="middle" x="652.47" y="-54.6" font-family="Noto Sans CJK SC" font-size="13.00" fill="#cc0000">?</text>
</g>
<!-- resolv_m&#45;&gt;broken -->
<g id="edge7" class="edge">
<title>resolv_m&#45;&gt;broken</title>
<path fill="none" stroke="#cc0000" stroke-dasharray="5,2" d="M454.45,-58C502.82,-58 573,-58 615.24,-58"/>
<polygon fill="#cc0000" stroke="#cc0000" points="615.34,-61.5 625.34,-58 615.34,-54.5 615.34,-61.5"/>
<text text-anchor="middle" x="518.43" y="-72" font-family="Noto Sans CJK SC" font-size="10.00" fill="#cc0000">容器里</text>
<text text-anchor="middle" x="518.43" y="-61" font-family="Noto Sans CJK SC" font-size="10.00" fill="#cc0000">常拿不到这俩</text>
</g>
</g>
</svg>
