<?xml version="1.0" encoding="UTF-8" standalone="no"?>
<!DOCTYPE svg PUBLIC "-//W3C//DTD SVG 1.1//EN"
 "http://www.w3.org/Graphics/SVG/1.1/DTD/svg11.dtd">
<!-- Generated by graphviz version 2.42.4 (0)
 -->
<!-- Title: alpine_dns_fix Pages: 1 -->
<svg width="1096pt" height="229pt"
 viewBox="0.00 0.00 1095.50 228.98" xmlns="http://www.w3.org/2000/svg" xmlns:xlink="http://www.w3.org/1999/xlink">
<g id="graph0" class="graph" transform="scale(1 1) rotate(0) translate(4 224.98)">
<title>alpine_dns_fix</title>
<!-- start -->
<g id="node1" class="node">
<title>start</title>
<path fill="#e8f4ff" stroke="black" d="M685.5,-220.98C685.5,-220.98 492.5,-220.98 492.5,-220.98 486.5,-220.98 480.5,-214.98 480.5,-208.98 480.5,-208.98 480.5,-196.98 480.5,-196.98 480.5,-190.98 486.5,-184.98 492.5,-184.98 492.5,-184.98 685.5,-184.98 685.5,-184.98 691.5,-184.98 697.5,-190.98 697.5,-196.98 697.5,-196.98 697.5,-208.98 697.5,-208.98 697.5,-214.98 691.5,-220.98 685.5,-220.98"/>
<text text-anchor="middle" x="589" y="-206.18" font-family="Noto Sans CJK SC" font-size="11.00" fill="#222222">应用发起 dns 查询</text>
<text text-anchor="middle" x="589" y="-194.18" font-family="Noto Sans CJK SC" font-size="11.00" fill="#222222">gethostbyname(&quot;api.example.com&quot;)</text>
</g>
<!-- branch -->
<g id="node2" class="node">
<title>branch</title>
<path fill="#fff4d6" stroke="black" d="M577.46,-145.69C577.46,-145.69 488.54,-120.28 488.54,-120.28 482.77,-118.63 482.77,-115.34 488.54,-113.69 488.54,-113.69 577.46,-88.28 577.46,-88.28 583.23,-86.63 594.77,-86.63 600.54,-88.28 600.54,-88.28 689.46,-113.69 689.46,-113.69 695.23,-115.34 695.23,-118.63 689.46,-120.28 689.46,-120.28 600.54,-145.69 600.54,-145.69 594.77,-147.34 583.23,-147.34 577.46,-145.69"/>
<text text-anchor="middle" x="589" y="-120.18" font-family="Noto Sans CJK SC" font-size="11.00" fill="#222222">Alpine?</text>
<text text-anchor="middle" x="589" y="-108.18" font-family="Noto Sans CJK SC" font-size="11.00" fill="#222222">是否在 musl 环境?</text>
</g>
<!-- start&#45;&gt;branch -->
<g id="edge1" class="edge">
<title>start&#45;&gt;branch</title>
<path fill="none" stroke="#555555" d="M589,-184.58C589,-177.26 589,-168.39 589,-159.56"/>
<polygon fill="#555555" stroke="#555555" points="592.5,-159.29 589,-149.29 585.5,-159.29 592.5,-159.29"/>
</g>
<!-- p1 -->
<g id="node3" class="node">
<title>p1</title>
<path fill="#d6f5d6" stroke="black" d="M250,-46.49C250,-46.49 12,-46.49 12,-46.49 6,-46.49 0,-40.49 0,-34.49 0,-34.49 0,-14.49 0,-14.49 0,-8.49 6,-2.49 12,-2.49 12,-2.49 250,-2.49 250,-2.49 256,-2.49 262,-8.49 262,-14.49 262,-14.49 262,-34.49 262,-34.49 262,-40.49 256,-46.49 250,-46.49"/>
<text text-anchor="middle" x="131" y="-33.69" font-family="Noto Sans CJK SC" font-size="11.00" fill="#222222">把 /etc/resolv.conf</text>
<text text-anchor="middle" x="131" y="-21.69" font-family="Noto Sans CJK SC" font-size="11.00" fill="#222222">写死真实 DNS</text>
<text text-anchor="middle" x="131" y="-9.69" font-family="Noto Sans CJK SC" font-size="11.00" fill="#222222">echo &#39;nameserver 1.1.1.1&#39; &gt; /etc/resolv.conf</text>
</g>
<!-- branch&#45;&gt;p1 -->
<g id="edge2" class="edge">
<title>branch&#45;&gt;p1</title>
<path fill="none" stroke="#555555" d="M524.83,-103.31C453.13,-89.14 335.55,-65.91 247.49,-48.51"/>
<polygon fill="#555555" stroke="#555555" points="247.94,-45.03 237.45,-46.52 246.58,-51.9 247.94,-45.03"/>
</g>
<!-- p2 -->
<g id="node4" class="node">
<title>p2</title>
<path fill="#d6f5d6" stroke="black" d="M488,-42.49C488,-42.49 292,-42.49 292,-42.49 286,-42.49 280,-36.49 280,-30.49 280,-30.49 280,-18.49 280,-18.49 280,-12.49 286,-6.49 292,-6.49 292,-6.49 488,-6.49 488,-6.49 494,-6.49 500,-12.49 500,-18.49 500,-18.49 500,-30.49 500,-30.49 500,-36.49 494,-42.49 488,-42.49"/>
<text text-anchor="middle" x="390" y="-27.69" font-family="Noto Sans CJK SC" font-size="11.00" fill="#222222">关闭 resolv&#45;file 注入</text>
<text text-anchor="middle" x="390" y="-15.69" font-family="Noto Sans CJK SC" font-size="11.00" fill="#222222">(Docker &#45;&#45;dns=1.1.1.1 &#45;&#45;dns=8.8.8.8)</text>
</g>
<!-- branch&#45;&gt;p2 -->
<g id="edge3" class="edge">
<title>branch&#45;&gt;p2</title>
<path fill="none" stroke="#555555" d="M546.8,-96.79C514.61,-82.15 470.28,-62 436.97,-46.85"/>
<polygon fill="#555555" stroke="#555555" points="438,-43.47 427.44,-42.52 435.1,-49.84 438,-43.47"/>
</g>
<!-- p3 -->
<g id="node5" class="node">
<title>p3</title>
<path fill="#d6f5d6" stroke="black" d="M647.5,-46.49C647.5,-46.49 530.5,-46.49 530.5,-46.49 524.5,-46.49 518.5,-40.49 518.5,-34.49 518.5,-34.49 518.5,-14.49 518.5,-14.49 518.5,-8.49 524.5,-2.49 530.5,-2.49 530.5,-2.49 647.5,-2.49 647.5,-2.49 653.5,-2.49 659.5,-8.49 659.5,-14.49 659.5,-14.49 659.5,-34.49 659.5,-34.49 659.5,-40.49 653.5,-46.49 647.5,-46.49"/>
<text text-anchor="middle" x="589" y="-33.69" font-family="Noto Sans CJK SC" font-size="11.00" fill="#222222">拨到非 stub 上游</text>
<text text-anchor="middle" x="589" y="-21.69" font-family="Noto Sans CJK SC" font-size="11.00" fill="#222222">systemd&#45;resolved 关掉</text>
<text text-anchor="middle" x="589" y="-9.69" font-family="Noto Sans CJK SC" font-size="11.00" fill="#222222">改用本机 unbound</text>
</g>
<!-- branch&#45;&gt;p3 -->
<g id="edge4" class="edge">
<title>branch&#45;&gt;p3</title>
<path fill="none" stroke="#555555" d="M589,-84.84C589,-75.8 589,-65.93 589,-56.87"/>
<polygon fill="#555555" stroke="#555555" points="592.5,-56.72 589,-46.72 585.5,-56.72 592.5,-56.72"/>
</g>
<!-- p4 -->
<g id="node6" class="node">
<title>p4</title>
<path fill="#ffe8e8" stroke="black" d="M902.52,-21.11C902.52,-21.11 902.52,-27.87 902.52,-27.87 902.52,-31.25 899.21,-35.35 895.91,-36.07 895.91,-36.07 843.21,-47.54 843.21,-47.54 839.91,-48.26 833.23,-48.98 829.85,-48.98 829.85,-48.98 750.15,-48.98 750.15,-48.98 746.77,-48.98 740.09,-48.26 736.79,-47.54 736.79,-47.54 684.09,-36.07 684.09,-36.07 680.79,-35.35 677.48,-31.25 677.48,-27.87 677.48,-27.87 677.48,-21.11 677.48,-21.11 677.48,-17.73 680.79,-13.63 684.09,-12.91 684.09,-12.91 736.79,-1.45 736.79,-1.45 740.09,-0.73 746.77,-0.01 750.15,-0.01 750.15,-0.01 829.85,-0.01 829.85,-0.01 833.23,-0.01 839.91,-0.73 843.21,-1.45 843.21,-1.45 895.91,-12.91 895.91,-12.91 899.21,-13.63 902.52,-17.73 902.52,-21.11"/>
<text text-anchor="middle" x="790" y="-27.69" font-family="Noto Sans CJK SC" font-size="11.00" fill="#222222">装 gcompat + glibc 镜像</text>
<text text-anchor="middle" x="790" y="-15.69" font-family="Noto Sans CJK SC" font-size="11.00" fill="#222222">换 Debian&#45;slim 算了</text>
</g>
<!-- branch&#45;&gt;p4 -->
<g id="edge6" class="edge">
<title>branch&#45;&gt;p4</title>
<path fill="none" stroke="#555555" d="M631.14,-97.01C659.84,-84.09 698.28,-66.79 730.15,-52.44"/>
<polygon fill="#555555" stroke="#555555" points="731.7,-55.58 739.38,-48.28 728.82,-49.2 731.7,-55.58"/>
</g>
<!-- sutil -->
<g id="node7" class="node">
<title>sutil</title>
<path fill="#fff4d6" stroke="black" d="M1075.5,-42.49C1075.5,-42.49 932.5,-42.49 932.5,-42.49 926.5,-42.49 920.5,-36.49 920.5,-30.49 920.5,-30.49 920.5,-18.49 920.5,-18.49 920.5,-12.49 926.5,-6.49 932.5,-6.49 932.5,-6.49 1075.5,-6.49 1075.5,-6.49 1081.5,-6.49 1087.5,-12.49 1087.5,-18.49 1087.5,-18.49 1087.5,-30.49 1087.5,-30.49 1087.5,-36.49 1081.5,-42.49 1075.5,-42.49"/>
<text text-anchor="middle" x="1004" y="-27.69" font-family="Noto Sans CJK SC" font-size="11.00" fill="#222222">直接调 HTTP API,不依赖 DNS</text>
<text text-anchor="middle" x="1004" y="-15.69" font-family="Noto Sans CJK SC" font-size="11.00" fill="#222222">例如 ip 写死 / hosts 写死</text>
</g>
<!-- branch&#45;&gt;sutil -->
<g id="edge5" class="edge">
<title>branch&#45;&gt;sutil</title>
<path fill="none" stroke="#555555" d="M653.84,-103.43C719.2,-90.57 822.86,-69.6 912,-48.98 917.42,-47.73 923.01,-46.4 928.63,-45.03"/>
<polygon fill="#555555" stroke="#555555" points="929.88,-48.33 938.75,-42.54 928.21,-41.53 929.88,-48.33"/>
</g>
</g>
</svg>
