<?xml version="1.0" encoding="UTF-8" standalone="no"?>
<!DOCTYPE svg PUBLIC "-//W3C//DTD SVG 1.1//EN"
 "http://www.w3.org/Graphics/SVG/1.1/DTD/svg11.dtd">
<!-- Generated by graphviz version 2.42.4 (0)
 -->
<!-- Title: MCMFAlgorithm Pages: 1 -->
<svg width="296pt" height="395pt"
 viewBox="0.00 0.00 296.08 395.39" xmlns="http://www.w3.org/2000/svg" xmlns:xlink="http://www.w3.org/1999/xlink">
<g id="graph0" class="graph" transform="scale(1 1) rotate(0) translate(4 391.39)">
<title>MCMFAlgorithm</title>
<polygon fill="white" stroke="transparent" points="-4,4 -4,-391.39 292.08,-391.39 292.08,4 -4,4"/>
<!-- start -->
<g id="node1" class="node">
<title>start</title>
<polygon fill="#4caf50" stroke="black" points="250.02,-387.39 196.02,-387.39 196.02,-351.39 250.02,-351.39 250.02,-387.39"/>
<text text-anchor="middle" x="223.02" y="-366.89" font-family="sans-serif" font-size="10.00" fill="white">开始</text>
</g>
<!-- spfa -->
<g id="node2" class="node">
<title>spfa</title>
<ellipse fill="#e3f2fd" stroke="black" cx="223.02" cy="-293.18" rx="65.11" ry="21.43"/>
<text text-anchor="middle" x="223.02" y="-296.18" font-family="sans-serif" font-size="10.00">SPFA 在残量网络</text>
<text text-anchor="middle" x="223.02" y="-285.18" font-family="sans-serif" font-size="10.00">上求最长路</text>
</g>
<!-- start&#45;&gt;spfa -->
<g id="edge1" class="edge">
<title>start&#45;&gt;spfa</title>
<path fill="none" stroke="black" d="M223.02,-351.18C223.02,-343.3 223.02,-333.72 223.02,-324.69"/>
<polygon fill="black" stroke="black" points="226.52,-324.46 223.02,-314.46 219.52,-324.46 226.52,-324.46"/>
</g>
<!-- haspath -->
<g id="node3" class="node">
<title>haspath</title>
<polygon fill="#fff9c4" stroke="black" points="181.02,-234.97 124.3,-216.97 181.02,-198.97 237.74,-216.97 181.02,-234.97"/>
<text text-anchor="middle" x="181.02" y="-214.47" font-family="sans-serif" font-size="10.00">dist[T]&gt;0?</text>
</g>
<!-- spfa&#45;&gt;haspath -->
<g id="edge2" class="edge">
<title>spfa&#45;&gt;haspath</title>
<path fill="none" stroke="black" d="M211.55,-271.9C206.25,-262.53 199.92,-251.35 194.4,-241.6"/>
<polygon fill="black" stroke="black" points="197.39,-239.78 189.42,-232.81 191.3,-243.23 197.39,-239.78"/>
</g>
<!-- findflow -->
<g id="node4" class="node">
<title>findflow</title>
<ellipse fill="#e8f5e9" stroke="black" cx="82.02" cy="-131.75" rx="82.05" ry="21.43"/>
<text text-anchor="middle" x="82.02" y="-134.75" font-family="sans-serif" font-size="10.00">沿 pre[] 回溯</text>
<text text-anchor="middle" x="82.02" y="-123.75" font-family="sans-serif" font-size="10.00">flow = min(各边残量)</text>
</g>
<!-- haspath&#45;&gt;findflow -->
<g id="edge3" class="edge">
<title>haspath&#45;&gt;findflow</title>
<path fill="none" stroke="black" d="M165.99,-203.33C152.01,-191.58 130.75,-173.71 113.12,-158.89"/>
<polygon fill="black" stroke="black" points="115.23,-156.09 105.32,-152.33 110.72,-161.45 115.23,-156.09"/>
<text text-anchor="middle" x="143.02" y="-173.77" font-family="sans-serif" font-size="9.00">是</text>
</g>
<!-- output -->
<g id="node6" class="node">
<title>output</title>
<polygon fill="#ff5722" stroke="black" points="238.02,-149.75 182.02,-149.75 182.02,-113.75 238.02,-113.75 238.02,-149.75"/>
<text text-anchor="middle" x="210.02" y="-129.25" font-family="sans-serif" font-size="10.00" fill="white">输出 ans</text>
</g>
<!-- haspath&#45;&gt;output -->
<g id="edge6" class="edge">
<title>haspath&#45;&gt;output</title>
<path fill="none" stroke="black" d="M186.48,-200.31C190.48,-188.83 196.01,-172.96 200.71,-159.49"/>
<polygon fill="black" stroke="black" points="204.11,-160.36 204.1,-149.77 197.5,-158.06 204.11,-160.36"/>
<text text-anchor="middle" x="202.02" y="-173.77" font-family="sans-serif" font-size="9.00">否</text>
</g>
<!-- augment -->
<g id="node5" class="node">
<title>augment</title>
<ellipse fill="#c8e6c9" stroke="black" cx="174.02" cy="-36.77" rx="86.03" ry="36.54"/>
<text text-anchor="middle" x="174.02" y="-50.77" font-family="sans-serif" font-size="10.00">沿路径增广:</text>
<text text-anchor="middle" x="174.02" y="-39.77" font-family="sans-serif" font-size="10.00">正向边 cap &#45;= flow</text>
<text text-anchor="middle" x="174.02" y="-28.77" font-family="sans-serif" font-size="10.00">反向边 cap += flow</text>
<text text-anchor="middle" x="174.02" y="-17.77" font-family="sans-serif" font-size="10.00">ans += flow × dist[T]</text>
</g>
<!-- findflow&#45;&gt;augment -->
<g id="edge4" class="edge">
<title>findflow&#45;&gt;augment</title>
<path fill="none" stroke="black" d="M101.54,-111.03C110.97,-101.5 122.65,-89.69 133.87,-78.35"/>
<polygon fill="black" stroke="black" points="136.6,-80.57 141.14,-71 131.62,-75.65 136.6,-80.57"/>
</g>
<!-- augment&#45;&gt;spfa -->
<g id="edge5" class="edge">
<title>augment&#45;&gt;spfa</title>
<path fill="none" stroke="black" d="M216.21,-68.92C228.53,-80.47 240.44,-94.67 247.02,-110.54 268.23,-161.61 257.93,-180.75 247.02,-234.97 245.14,-244.33 241.68,-254.06 237.97,-262.79"/>
<polygon fill="black" stroke="black" points="234.67,-261.6 233.74,-272.15 241.05,-264.48 234.67,-261.6"/>
</g>
</g>
</svg>
