<?xml version="1.0" encoding="UTF-8" standalone="no"?>
<!DOCTYPE svg PUBLIC "-//W3C//DTD SVG 1.1//EN"
 "http://www.w3.org/Graphics/SVG/1.1/DTD/svg11.dtd">
<!-- Generated by graphviz version 2.42.4 (0)
 -->
<!-- Pages: 1 -->
<svg width="145pt" height="243pt"
 viewBox="0.00 0.00 144.99 242.75" xmlns="http://www.w3.org/2000/svg" xmlns:xlink="http://www.w3.org/1999/xlink">
<g id="graph0" class="graph" transform="scale(1 1) rotate(0) translate(4 238.75)">
<polygon fill="white" stroke="transparent" points="-4,4 -4,-238.75 140.99,-238.75 140.99,4 -4,4"/>
<!-- a1 -->
<g id="node1" class="node">
<title>a1</title>
<ellipse fill="#bbdefb" stroke="black" cx="22.75" cy="-98.75" rx="18" ry="18"/>
<text text-anchor="middle" x="22.75" y="-95.05" font-family="Times,serif" font-size="14.00">2</text>
</g>
<!-- b1 -->
<g id="node4" class="node">
<title>b1</title>
<ellipse fill="#c8e6c9" stroke="black" cx="114.24" cy="-98.75" rx="18" ry="18"/>
<text text-anchor="middle" x="114.24" y="-95.05" font-family="Times,serif" font-size="14.00">3</text>
</g>
<!-- a1&#45;&gt;b1 -->
<g id="edge1" class="edge">
<title>a1&#45;&gt;b1</title>
<path fill="none" stroke="black" d="M41,-98.75C53.76,-98.75 71.37,-98.75 86.02,-98.75"/>
<polygon fill="black" stroke="black" points="86.04,-102.25 96.04,-98.75 86.04,-95.25 86.04,-102.25"/>
<text text-anchor="middle" x="68.5" y="-102.55" font-family="Times,serif" font-size="14.00">2</text>
</g>
<!-- a2 -->
<g id="node2" class="node">
<title>a2</title>
<ellipse fill="#bbdefb" stroke="black" cx="22.75" cy="-33.75" rx="18" ry="18"/>
<text text-anchor="middle" x="22.75" y="-30.05" font-family="Times,serif" font-size="14.00">6</text>
</g>
<!-- a2&#45;&gt;b1 -->
<g id="edge2" class="edge">
<title>a2&#45;&gt;b1</title>
<path fill="none" stroke="black" d="M37.73,-43.9C51.97,-54.24 74.25,-70.43 90.93,-82.54"/>
<polygon fill="black" stroke="black" points="88.92,-85.4 99.06,-88.45 93.03,-79.74 88.92,-85.4"/>
<text text-anchor="middle" x="68.5" y="-72.55" font-family="Times,serif" font-size="14.00">2</text>
</g>
<!-- b2 -->
<g id="node5" class="node">
<title>b2</title>
<ellipse fill="#c8e6c9" stroke="black" cx="114.24" cy="-22.75" rx="23" ry="23"/>
<text text-anchor="middle" x="114.24" y="-19.05" font-family="Times,serif" font-size="14.00">15</text>
</g>
<!-- a2&#45;&gt;b2 -->
<g id="edge3" class="edge">
<title>a2&#45;&gt;b2</title>
<path fill="none" stroke="black" d="M40.22,-28.72C47.31,-26.78 55.74,-24.79 63.5,-23.75 69.17,-22.99 75.24,-22.55 81.12,-22.33"/>
<polygon fill="black" stroke="black" points="81.44,-25.82 91.37,-22.12 81.3,-18.82 81.44,-25.82"/>
<text text-anchor="middle" x="68.5" y="-27.55" font-family="Times,serif" font-size="14.00">3</text>
</g>
<!-- a3 -->
<g id="node3" class="node">
<title>a3</title>
<ellipse fill="#bbdefb" stroke="black" cx="22.75" cy="-157.75" rx="23" ry="23"/>
<text text-anchor="middle" x="22.75" y="-154.05" font-family="Times,serif" font-size="14.00">10</text>
</g>
<!-- a3&#45;&gt;b1 -->
<g id="edge4" class="edge">
<title>a3&#45;&gt;b1</title>
<path fill="none" stroke="black" d="M42.29,-145.52C56.2,-136.36 75.32,-123.75 90.21,-113.93"/>
<polygon fill="black" stroke="black" points="92.42,-116.67 98.85,-108.24 88.57,-110.82 92.42,-116.67"/>
<text text-anchor="middle" x="68.5" y="-133.55" font-family="Times,serif" font-size="14.00">2</text>
</g>
<!-- b3 -->
<g id="node6" class="node">
<title>b3</title>
<ellipse fill="#c8e6c9" stroke="black" cx="22.75" cy="-216.75" rx="18" ry="18"/>
<text text-anchor="middle" x="22.75" y="-213.05" font-family="Times,serif" font-size="14.00">9</text>
</g>
</g>
</svg>
