<?xml version="1.0" encoding="UTF-8" standalone="no"?>
<!DOCTYPE svg PUBLIC "-//W3C//DTD SVG 1.1//EN"
 "http://www.w3.org/Graphics/SVG/1.1/DTD/svg11.dtd">
<!-- Generated by graphviz version 2.42.4 (0)
 -->
<!-- Pages: 1 -->
<svg width="225pt" height="332pt"
 viewBox="0.00 0.00 224.92 332.00" xmlns="http://www.w3.org/2000/svg" xmlns:xlink="http://www.w3.org/1999/xlink">
<g id="graph0" class="graph" transform="scale(1 1) rotate(0) translate(4 328)">
<polygon fill="white" stroke="transparent" points="-4,4 -4,-328 220.92,-328 220.92,4 -4,4"/>
<!-- start -->
<g id="node1" class="node">
<title>start</title>
<polygon fill="#e8f5e9" stroke="black" points="166.96,-324 49.96,-324 49.96,-288 166.96,-288 166.96,-324"/>
<text text-anchor="middle" x="108.46" y="-302.3" font-family="Times,serif" font-size="14.00">Read Problem</text>
</g>
<!-- condition -->
<g id="node2" class="node">
<title>condition</title>
<polygon fill="#fff3e0" stroke="black" points="108.46,-252 42.1,-234 108.46,-216 174.82,-234 108.46,-252"/>
<text text-anchor="middle" x="108.46" y="-230.3" font-family="Times,serif" font-size="14.00">gcd &gt; 1</text>
</g>
<!-- start&#45;&gt;condition -->
<g id="edge1" class="edge">
<title>start&#45;&gt;condition</title>
<path fill="none" stroke="black" d="M108.46,-287.7C108.46,-279.98 108.46,-270.71 108.46,-262.11"/>
<polygon fill="black" stroke="black" points="111.96,-262.1 108.46,-252.1 104.96,-262.1 111.96,-262.1"/>
</g>
<!-- prime -->
<g id="node3" class="node">
<title>prime</title>
<polygon fill="#fff3e0" stroke="black" points="108.46,-180 0.04,-162 108.46,-144 216.88,-162 108.46,-180"/>
<text text-anchor="middle" x="108.46" y="-158.3" font-family="Times,serif" font-size="14.00">Ratio is Prime</text>
</g>
<!-- condition&#45;&gt;prime -->
<g id="edge2" class="edge">
<title>condition&#45;&gt;prime</title>
<path fill="none" stroke="black" d="M108.46,-215.7C108.46,-207.98 108.46,-198.71 108.46,-190.11"/>
<polygon fill="black" stroke="black" points="111.96,-190.1 108.46,-180.1 104.96,-190.1 111.96,-190.1"/>
</g>
<!-- bipartite -->
<g id="node4" class="node">
<title>bipartite</title>
<polygon fill="#e3f2fd" stroke="black" points="167.96,-108 48.96,-108 48.96,-72 167.96,-72 167.96,-108"/>
<text text-anchor="middle" x="108.46" y="-86.3" font-family="Times,serif" font-size="14.00">Bipartite Split</text>
</g>
<!-- prime&#45;&gt;bipartite -->
<g id="edge3" class="edge">
<title>prime&#45;&gt;bipartite</title>
<path fill="none" stroke="black" d="M108.46,-143.7C108.46,-135.98 108.46,-126.71 108.46,-118.11"/>
<polygon fill="black" stroke="black" points="111.96,-118.1 108.46,-108.1 104.96,-118.1 111.96,-118.1"/>
</g>
<!-- match -->
<g id="node5" class="node">
<title>match</title>
<polygon fill="#fce4ec" stroke="black" points="179.46,-36 37.46,-36 37.46,0 179.46,0 179.46,-36"/>
<text text-anchor="middle" x="108.46" y="-14.3" font-family="Times,serif" font-size="14.00">Hungarian Match</text>
</g>
<!-- bipartite&#45;&gt;match -->
<g id="edge4" class="edge">
<title>bipartite&#45;&gt;match</title>
<path fill="none" stroke="black" d="M108.46,-71.7C108.46,-63.98 108.46,-54.71 108.46,-46.11"/>
<polygon fill="black" stroke="black" points="111.96,-46.1 108.46,-36.1 104.96,-46.1 111.96,-46.1"/>
</g>
</g>
</svg>
