<?xml version="1.0" encoding="UTF-8" standalone="no"?>
<!DOCTYPE svg PUBLIC "-//W3C//DTD SVG 1.1//EN"
 "http://www.w3.org/Graphics/SVG/1.1/DTD/svg11.dtd">
<!-- Generated by graphviz version 2.42.4 (0)
 -->
<!-- Title: AugmentationStep Pages: 1 -->
<svg width="173pt" height="293pt"
 viewBox="0.00 0.00 173.40 293.00" xmlns="http://www.w3.org/2000/svg" xmlns:xlink="http://www.w3.org/1999/xlink">
<g id="graph0" class="graph" transform="scale(1 1) rotate(0) translate(4 289)">
<title>AugmentationStep</title>
<polygon fill="white" stroke="transparent" points="-4,4 -4,-289 169.4,-289 169.4,4 -4,4"/>
<!-- S -->
<g id="node1" class="node">
<title>S</title>
<ellipse fill="#ff9800" stroke="black" cx="97.4" cy="-267" rx="27" ry="18"/>
<text text-anchor="middle" x="97.4" y="-263.9" font-family="sans-serif" font-size="12.00" fill="white">S</text>
</g>
<!-- L1 -->
<g id="node2" class="node">
<title>L1</title>
<ellipse fill="#bbdeeb" stroke="black" cx="47.4" cy="-184" rx="27" ry="18"/>
<text text-anchor="middle" x="47.4" y="-180.9" font-family="sans-serif" font-size="12.00">L₁</text>
</g>
<!-- S&#45;&gt;L1 -->
<g id="edge1" class="edge">
<title>S&#45;&gt;L1</title>
<path fill="none" stroke="#000000" d="M85.21,-250.69C80.66,-244.7 75.59,-237.67 71.4,-231 67.42,-224.64 63.49,-217.55 59.99,-210.88"/>
<polygon fill="#000000" stroke="#000000" points="62.89,-208.85 55.24,-201.53 56.65,-212.03 62.89,-208.85"/>
<text text-anchor="middle" x="87.4" y="-223" font-family="sans-serif" font-size="10.00">cap=3</text>
</g>
<!-- L2 -->
<g id="node3" class="node">
<title>L2</title>
<ellipse fill="#bbdeeb" stroke="black" cx="130.4" cy="-184" rx="27" ry="18"/>
<text text-anchor="middle" x="130.4" y="-180.9" font-family="sans-serif" font-size="12.00">L₂</text>
</g>
<!-- S&#45;&gt;L2 -->
<g id="edge2" class="edge">
<title>S&#45;&gt;L2</title>
<path fill="none" stroke="#000000" d="M104.24,-249.22C108.74,-238.17 114.72,-223.5 119.83,-210.97"/>
<polygon fill="#000000" stroke="#000000" points="123.16,-212.07 123.69,-201.48 116.67,-209.42 123.16,-212.07"/>
<text text-anchor="middle" x="131.4" y="-223" font-family="sans-serif" font-size="10.00">cap=4</text>
</g>
<!-- S&#45;&gt;L2 -->
<g id="edge9" class="edge">
<title>S&#45;&gt;L2</title>
<path fill="none" stroke="#ff6f00" stroke-width="3" d="M101.66,-249.11C104.11,-240.28 107.47,-229.39 111.4,-220 112.78,-216.71 114.37,-213.33 116.04,-210.02"/>
<polygon fill="#ff6f00" stroke="#ff6f00" stroke-width="3" points="119.21,-211.52 120.81,-201.05 113.03,-208.23 119.21,-211.52"/>
</g>
<!-- R1 -->
<g id="node4" class="node">
<title>R1</title>
<ellipse fill="#c8e6c9" stroke="black" cx="131.4" cy="-101" rx="27" ry="18"/>
<text text-anchor="middle" x="131.4" y="-97.9" font-family="sans-serif" font-size="12.00">R₁</text>
</g>
<!-- L1&#45;&gt;R1 -->
<g id="edge3" class="edge">
<title>L1&#45;&gt;R1</title>
<path fill="none" stroke="#000000" d="M49.32,-165.68C51.12,-156.3 54.62,-145.04 61.4,-137 64.31,-133.56 82.95,-124.31 100.26,-116.18"/>
<polygon fill="#000000" stroke="#000000" points="102.05,-119.21 109.64,-111.83 99.1,-112.87 102.05,-119.21"/>
<text text-anchor="middle" x="72.9" y="-140" font-family="sans-serif" font-size="10.00">w=5</text>
</g>
<!-- R2 -->
<g id="node5" class="node">
<title>R2</title>
<ellipse fill="#c8e6c9" stroke="black" cx="55.4" cy="-101" rx="27" ry="18"/>
<text text-anchor="middle" x="55.4" y="-97.9" font-family="sans-serif" font-size="12.00">R₂</text>
</g>
<!-- L1&#45;&gt;R2 -->
<g id="edge4" class="edge">
<title>L1&#45;&gt;R2</title>
<path fill="none" stroke="#000000" d="M25.65,-172.95C10.62,-164.48 -5.38,-151.46 2.4,-137 7.17,-128.14 15.28,-121.14 23.74,-115.81"/>
<polygon fill="#000000" stroke="#000000" points="25.56,-118.81 32.56,-110.85 22.12,-112.71 25.56,-118.81"/>
<text text-anchor="middle" x="13.9" y="-140" font-family="sans-serif" font-size="10.00">w=3</text>
</g>
<!-- L2&#45;&gt;R1 -->
<g id="edge5" class="edge">
<title>L2&#45;&gt;R1</title>
<path fill="none" stroke="#000000" d="M137.29,-166.56C139.37,-160.79 141.37,-154.21 142.4,-148 143.49,-141.52 142.81,-134.59 141.38,-128.13"/>
<polygon fill="#000000" stroke="#000000" points="144.74,-127.16 138.64,-118.49 138.01,-129.07 144.74,-127.16"/>
<text text-anchor="middle" x="153.9" y="-140" font-family="sans-serif" font-size="10.00">w=7</text>
</g>
<!-- L2&#45;&gt;R1 -->
<g id="edge10" class="edge">
<title>L2&#45;&gt;R1</title>
<path fill="none" stroke="#ff6f00" stroke-width="3" d="M130.62,-165.82C130.75,-155.19 130.92,-141.31 131.07,-129.2"/>
<polygon fill="#ff6f00" stroke="#ff6f00" stroke-width="3" points="134.57,-129.2 131.19,-119.15 127.57,-129.11 134.57,-129.2"/>
</g>
<!-- L2&#45;&gt;R2 -->
<g id="edge6" class="edge">
<title>L2&#45;&gt;R2</title>
<path fill="none" stroke="#000000" d="M116.65,-168.14C105.34,-155.93 89.13,-138.42 76.23,-124.49"/>
<polygon fill="#000000" stroke="#000000" points="78.44,-121.72 69.07,-116.76 73.3,-126.48 78.44,-121.72"/>
<text text-anchor="middle" x="107.9" y="-140" font-family="sans-serif" font-size="10.00">w=2</text>
</g>
<!-- T -->
<g id="node6" class="node">
<title>T</title>
<ellipse fill="#ff5722" stroke="black" cx="102.4" cy="-18" rx="27" ry="18"/>
<text text-anchor="middle" x="102.4" y="-14.9" font-family="sans-serif" font-size="12.00" fill="white">T</text>
</g>
<!-- R1&#45;&gt;T -->
<g id="edge7" class="edge">
<title>R1&#45;&gt;T</title>
<path fill="none" stroke="#000000" d="M125.4,-83.22C121.47,-72.25 116.26,-57.69 111.79,-45.22"/>
<polygon fill="#000000" stroke="#000000" points="115.07,-44 108.41,-35.76 108.48,-46.36 115.07,-44"/>
<text text-anchor="middle" x="134.4" y="-57" font-family="sans-serif" font-size="10.00">cap=2</text>
</g>
<!-- R1&#45;&gt;T -->
<g id="edge11" class="edge">
<title>R1&#45;&gt;T</title>
<path fill="none" stroke="#ff6f00" stroke-width="3" d="M123.86,-83.41C121.35,-77.64 118.63,-71.09 116.4,-65 114.11,-58.72 111.88,-51.87 109.9,-45.42"/>
<polygon fill="#ff6f00" stroke="#ff6f00" stroke-width="3" points="113.23,-44.34 107.02,-35.75 106.52,-46.34 113.23,-44.34"/>
</g>
<!-- R2&#45;&gt;T -->
<g id="edge8" class="edge">
<title>R2&#45;&gt;T</title>
<path fill="none" stroke="#000000" d="M61.98,-83.4C65.77,-74.46 70.87,-63.37 76.4,-54 78.66,-50.19 81.24,-46.29 83.88,-42.54"/>
<polygon fill="#000000" stroke="#000000" points="86.92,-44.32 90.03,-34.2 81.28,-40.17 86.92,-44.32"/>
<text text-anchor="middle" x="92.4" y="-57" font-family="sans-serif" font-size="10.00">cap=1</text>
</g>
</g>
</svg>
