<?xml version="1.0" encoding="UTF-8" standalone="no"?>
<!DOCTYPE svg PUBLIC "-//W3C//DTD SVG 1.1//EN"
 "http://www.w3.org/Graphics/SVG/1.1/DTD/svg11.dtd">
<!-- Generated by graphviz version 2.42.4 (0)
 -->
<!-- Title: BipartiteExample Pages: 1 -->
<svg width="461pt" height="317pt"
 viewBox="0.00 0.00 460.59 317.17" xmlns="http://www.w3.org/2000/svg" xmlns:xlink="http://www.w3.org/1999/xlink">
<g id="graph0" class="graph" transform="scale(1 1) rotate(0) translate(4 313.17)">
<title>BipartiteExample</title>
<polygon fill="white" stroke="transparent" points="-4,4 -4,-313.17 456.59,-313.17 456.59,4 -4,4"/>
<!-- S -->
<g id="node1" class="node">
<title>S</title>
<ellipse fill="#ff9800" stroke="black" cx="226.3" cy="-291.17" rx="27" ry="18"/>
<text text-anchor="middle" x="226.3" y="-288.07" font-family="sans-serif" font-size="12.00" fill="white">S</text>
</g>
<!-- L1 -->
<g id="node3" class="node">
<title>L1</title>
<ellipse fill="#bbdeeb" stroke="black" cx="69.3" cy="-202.12" rx="69.09" ry="24.08"/>
<text text-anchor="middle" x="69.3" y="-205.52" font-family="sans-serif" font-size="12.00">2</text>
<text text-anchor="middle" x="69.3" y="-192.52" font-family="sans-serif" font-size="12.00">(奇数个质因数)</text>
</g>
<!-- S&#45;&gt;L1 -->
<g id="edge1" class="edge">
<title>S&#45;&gt;L1</title>
<path fill="none" stroke="#000000" d="M206.09,-278.97C182.98,-266.15 144.41,-244.77 114.11,-227.97"/>
<polygon fill="#000000" stroke="#000000" points="115.44,-224.7 104.99,-222.92 112.04,-230.82 115.44,-224.7"/>
<text text-anchor="middle" x="178.3" y="-247.17" font-family="sans-serif" font-size="10.00">cap=3</text>
</g>
<!-- L2 -->
<g id="node4" class="node">
<title>L2</title>
<ellipse fill="#bbdeeb" stroke="black" cx="226.3" cy="-202.12" rx="69.09" ry="24.08"/>
<text text-anchor="middle" x="226.3" y="-205.52" font-family="sans-serif" font-size="12.00">6</text>
<text text-anchor="middle" x="226.3" y="-192.52" font-family="sans-serif" font-size="12.00">(奇数个质因数)</text>
</g>
<!-- S&#45;&gt;L2 -->
<g id="edge2" class="edge">
<title>S&#45;&gt;L2</title>
<path fill="none" stroke="#000000" d="M226.3,-272.97C226.3,-262.52 226.3,-248.82 226.3,-236.33"/>
<polygon fill="#000000" stroke="#000000" points="229.8,-236.22 226.3,-226.22 222.8,-236.22 229.8,-236.22"/>
<text text-anchor="middle" x="242.3" y="-247.17" font-family="sans-serif" font-size="10.00">cap=4</text>
</g>
<!-- L3 -->
<g id="node5" class="node">
<title>L3</title>
<ellipse fill="#bbdeeb" stroke="black" cx="383.3" cy="-202.12" rx="69.09" ry="24.08"/>
<text text-anchor="middle" x="383.3" y="-205.52" font-family="sans-serif" font-size="12.00">3</text>
<text text-anchor="middle" x="383.3" y="-192.52" font-family="sans-serif" font-size="12.00">(奇数个质因数)</text>
</g>
<!-- S&#45;&gt;L3 -->
<g id="edge3" class="edge">
<title>S&#45;&gt;L3</title>
<path fill="none" stroke="#000000" d="M246.5,-278.97C269.62,-266.15 308.19,-244.77 338.49,-227.97"/>
<polygon fill="#000000" stroke="#000000" points="340.55,-230.82 347.6,-222.92 337.16,-224.7 340.55,-230.82"/>
<text text-anchor="middle" x="320.3" y="-247.17" font-family="sans-serif" font-size="10.00">cap=5</text>
</g>
<!-- T -->
<g id="node2" class="node">
<title>T</title>
<ellipse fill="#ff5722" stroke="black" cx="226.3" cy="-18" rx="27" ry="18"/>
<text text-anchor="middle" x="226.3" y="-14.9" font-family="sans-serif" font-size="12.00" fill="white">T</text>
</g>
<!-- R1 -->
<g id="node6" class="node">
<title>R1</title>
<ellipse fill="#c8e6c9" stroke="black" cx="69.3" cy="-107.04" rx="69.09" ry="24.08"/>
<text text-anchor="middle" x="69.3" y="-110.44" font-family="sans-serif" font-size="12.00">4</text>
<text text-anchor="middle" x="69.3" y="-97.44" font-family="sans-serif" font-size="12.00">(偶数个质因数)</text>
</g>
<!-- L1&#45;&gt;R1 -->
<g id="edge7" class="edge">
<title>L1&#45;&gt;R1</title>
<path fill="none" stroke="#e91e63" stroke-width="2" d="M69.3,-177.64C69.3,-166.64 69.3,-153.34 69.3,-141.33"/>
<polygon fill="#e91e63" stroke="#e91e63" stroke-width="2" points="72.8,-141.2 69.3,-131.2 65.8,-141.2 72.8,-141.2"/>
<text text-anchor="middle" x="82.3" y="-152.08" font-family="sans-serif" font-size="10.00">w=...</text>
</g>
<!-- R3 -->
<g id="node8" class="node">
<title>R3</title>
<ellipse fill="#c8e6c9" stroke="black" cx="226.3" cy="-107.04" rx="69.09" ry="24.08"/>
<text text-anchor="middle" x="226.3" y="-110.44" font-family="sans-serif" font-size="12.00">10</text>
<text text-anchor="middle" x="226.3" y="-97.44" font-family="sans-serif" font-size="12.00">(偶数个质因数)</text>
</g>
<!-- L2&#45;&gt;R3 -->
<g id="edge8" class="edge">
<title>L2&#45;&gt;R3</title>
<path fill="none" stroke="#e91e63" stroke-width="2" d="M226.3,-177.64C226.3,-166.64 226.3,-153.34 226.3,-141.33"/>
<polygon fill="#e91e63" stroke="#e91e63" stroke-width="2" points="229.8,-141.2 226.3,-131.2 222.8,-141.2 229.8,-141.2"/>
<text text-anchor="middle" x="239.3" y="-152.08" font-family="sans-serif" font-size="10.00">w=...</text>
</g>
<!-- R2 -->
<g id="node7" class="node">
<title>R2</title>
<ellipse fill="#c8e6c9" stroke="black" cx="383.3" cy="-107.04" rx="69.09" ry="24.08"/>
<text text-anchor="middle" x="383.3" y="-110.44" font-family="sans-serif" font-size="12.00">9</text>
<text text-anchor="middle" x="383.3" y="-97.44" font-family="sans-serif" font-size="12.00">(偶数个质因数)</text>
</g>
<!-- L3&#45;&gt;R2 -->
<g id="edge9" class="edge">
<title>L3&#45;&gt;R2</title>
<path fill="none" stroke="#e91e63" stroke-width="2" d="M383.3,-177.64C383.3,-166.64 383.3,-153.34 383.3,-141.33"/>
<polygon fill="#e91e63" stroke="#e91e63" stroke-width="2" points="386.8,-141.2 383.3,-131.2 379.8,-141.2 386.8,-141.2"/>
<text text-anchor="middle" x="396.3" y="-152.08" font-family="sans-serif" font-size="10.00">w=...</text>
</g>
<!-- R1&#45;&gt;T -->
<g id="edge4" class="edge">
<title>R1&#45;&gt;T</title>
<path fill="none" stroke="#000000" d="M104.92,-86.29C132.8,-70.83 171.09,-49.61 197.16,-35.16"/>
<polygon fill="#000000" stroke="#000000" points="199.12,-38.07 206.17,-30.16 195.72,-31.95 199.12,-38.07"/>
<text text-anchor="middle" x="178.3" y="-57" font-family="sans-serif" font-size="10.00">cap=2</text>
</g>
<!-- R2&#45;&gt;T -->
<g id="edge5" class="edge">
<title>R2&#45;&gt;T</title>
<path fill="none" stroke="#000000" d="M347.67,-86.29C319.79,-70.83 281.5,-49.61 255.44,-35.16"/>
<polygon fill="#000000" stroke="#000000" points="256.87,-31.95 246.43,-30.16 253.48,-38.07 256.87,-31.95"/>
<text text-anchor="middle" x="320.3" y="-57" font-family="sans-serif" font-size="10.00">cap=1</text>
</g>
<!-- R3&#45;&gt;T -->
<g id="edge6" class="edge">
<title>R3&#45;&gt;T</title>
<path fill="none" stroke="#000000" d="M226.3,-82.72C226.3,-71.46 226.3,-57.88 226.3,-46.16"/>
<polygon fill="#000000" stroke="#000000" points="229.8,-46.04 226.3,-36.04 222.8,-46.04 229.8,-46.04"/>
<text text-anchor="middle" x="242.3" y="-57" font-family="sans-serif" font-size="10.00">cap=3</text>
</g>
</g>
</svg>
