<?xml version="1.0" encoding="UTF-8" standalone="no"?>
<!DOCTYPE svg PUBLIC "-//W3C//DTD SVG 1.1//EN"
 "http://www.w3.org/Graphics/SVG/1.1/DTD/svg11.dtd">
<!-- Generated by graphviz version 2.42.4 (0)
 -->
<!-- Title: SPFAFlow Pages: 1 -->
<svg width="217pt" height="439pt"
 viewBox="0.00 0.00 217.45 439.00" xmlns="http://www.w3.org/2000/svg" xmlns:xlink="http://www.w3.org/1999/xlink">
<g id="graph0" class="graph" transform="scale(1 1) rotate(0) translate(4 435)">
<title>SPFAFlow</title>
<polygon fill="white" stroke="transparent" points="-4,4 -4,-435 213.45,-435 213.45,4 -4,4"/>
<!-- start -->
<g id="node1" class="node">
<title>start</title>
<polygon fill="#4caf50" stroke="black" points="143.55,-431 89.55,-431 89.55,-395 143.55,-395 143.55,-431"/>
<text text-anchor="middle" x="116.55" y="-410.2" font-family="sans-serif" font-size="11.00" fill="white">开 始</text>
</g>
<!-- spfa -->
<g id="node2" class="node">
<title>spfa</title>
<ellipse fill="#e3f2fd" stroke="black" cx="116.55" cy="-340" rx="68.61" ry="18"/>
<text text-anchor="middle" x="116.55" y="-337.2" font-family="sans-serif" font-size="11.00">SPFA 找最长增广路</text>
</g>
<!-- start&#45;&gt;spfa -->
<g id="edge1" class="edge">
<title>start&#45;&gt;spfa</title>
<path fill="none" stroke="black" d="M116.55,-394.81C116.55,-386.79 116.55,-377.05 116.55,-368.07"/>
<polygon fill="black" stroke="black" points="120.05,-368.03 116.55,-358.03 113.05,-368.03 120.05,-368.03"/>
</g>
<!-- relax -->
<g id="node3" class="node">
<title>relax</title>
<ellipse fill="#e3f2fd" stroke="black" cx="68.55" cy="-267" rx="68.61" ry="18"/>
<text text-anchor="middle" x="68.55" y="-264.2" font-family="sans-serif" font-size="11.00">取出队首, 松弛邻边</text>
</g>
<!-- spfa&#45;&gt;relax -->
<g id="edge2" class="edge">
<title>spfa&#45;&gt;relax</title>
<path fill="none" stroke="black" d="M105.18,-322.17C99.4,-313.63 92.27,-303.08 85.83,-293.56"/>
<polygon fill="black" stroke="black" points="88.68,-291.52 80.18,-285.2 82.88,-295.44 88.68,-291.52"/>
</g>
<!-- empty -->
<g id="node4" class="node">
<title>empty</title>
<polygon fill="#fff9c4" stroke="black" points="71.55,-202 23.81,-184 71.55,-166 119.3,-184 71.55,-202"/>
<text text-anchor="middle" x="71.55" y="-181.2" font-family="sans-serif" font-size="11.00">队列空?</text>
</g>
<!-- relax&#45;&gt;empty -->
<g id="edge3" class="edge">
<title>relax&#45;&gt;empty</title>
<path fill="none" stroke="black" d="M69.19,-248.82C69.59,-238.12 70.1,-224.12 70.55,-211.96"/>
<polygon fill="black" stroke="black" points="74.05,-212 70.93,-201.88 67.06,-211.74 74.05,-212"/>
</g>
<!-- empty&#45;&gt;relax -->
<g id="edge4" class="edge">
<title>empty&#45;&gt;relax</title>
<path fill="none" stroke="black" d="M64.27,-199.61C61.59,-205.75 58.89,-213.06 57.55,-220 56.36,-226.2 56.87,-232.82 58.18,-239.06"/>
<polygon fill="black" stroke="black" points="54.9,-240.34 60.96,-249.04 61.65,-238.47 54.9,-240.34"/>
<text text-anchor="middle" x="62.55" y="-223" font-family="sans-serif" font-size="10.00">否</text>
</g>
<!-- pospath -->
<g id="node5" class="node">
<title>pospath</title>
<polygon fill="#fff9c4" stroke="black" points="71.55,-119 5.39,-101 71.55,-83 137.72,-101 71.55,-119"/>
<text text-anchor="middle" x="71.55" y="-98.2" font-family="sans-serif" font-size="11.00">dist[T]&gt;0 ?</text>
</g>
<!-- empty&#45;&gt;pospath -->
<g id="edge5" class="edge">
<title>empty&#45;&gt;pospath</title>
<path fill="none" stroke="black" d="M71.55,-165.82C71.55,-155.19 71.55,-141.31 71.55,-129.2"/>
<polygon fill="black" stroke="black" points="75.05,-129.15 71.55,-119.15 68.05,-129.15 75.05,-129.15"/>
<text text-anchor="middle" x="76.55" y="-140" font-family="sans-serif" font-size="10.00">是</text>
</g>
<!-- augment -->
<g id="node6" class="node">
<title>augment</title>
<ellipse fill="#c8e6c9" stroke="black" cx="165.55" cy="-18" rx="43.8" ry="18"/>
<text text-anchor="middle" x="165.55" y="-15.2" font-family="sans-serif" font-size="11.00">沿路径增广</text>
</g>
<!-- pospath&#45;&gt;augment -->
<g id="edge6" class="edge">
<title>pospath&#45;&gt;augment</title>
<path fill="none" stroke="black" d="M86.66,-86.99C100.93,-74.69 122.63,-55.99 139.66,-41.31"/>
<polygon fill="black" stroke="black" points="142.3,-43.65 147.6,-34.47 137.73,-38.35 142.3,-43.65"/>
<text text-anchor="middle" x="128.55" y="-57" font-family="sans-serif" font-size="10.00">是</text>
</g>
<!-- output -->
<g id="node7" class="node">
<title>output</title>
<polygon fill="#ff5722" stroke="black" points="102.55,-36 40.55,-36 40.55,0 102.55,0 102.55,-36"/>
<text text-anchor="middle" x="71.55" y="-15.2" font-family="sans-serif" font-size="11.00" fill="white">输出答案</text>
</g>
<!-- pospath&#45;&gt;output -->
<g id="edge7" class="edge">
<title>pospath&#45;&gt;output</title>
<path fill="none" stroke="black" d="M71.55,-82.82C71.55,-72.19 71.55,-58.31 71.55,-46.2"/>
<polygon fill="black" stroke="black" points="75.05,-46.15 71.55,-36.15 68.05,-46.15 75.05,-46.15"/>
<text text-anchor="middle" x="76.55" y="-57" font-family="sans-serif" font-size="10.00">否</text>
</g>
<!-- augment&#45;&gt;spfa -->
<g id="edge8" class="edge">
<title>augment&#45;&gt;spfa</title>
<path fill="none" stroke="black" d="M165.55,-36.07C165.55,-52.46 165.55,-77.92 165.55,-100 165.55,-268 165.55,-268 165.55,-268 165.55,-285.86 154.92,-302.49 143.56,-315.15"/>
<polygon fill="black" stroke="black" points="140.9,-312.87 136.48,-322.51 145.94,-317.73 140.9,-312.87"/>
</g>
</g>
</svg>
