<?xml version="1.0" encoding="UTF-8" standalone="no"?>
<!DOCTYPE svg PUBLIC "-//W3C//DTD SVG 1.1//EN"
 "http://www.w3.org/Graphics/SVG/1.1/DTD/svg11.dtd">
<!-- Generated by graphviz version 2.42.4 (0)
 -->
<!-- Pages: 1 -->
<svg width="192pt" height="332pt"
 viewBox="0.00 0.00 192.00 332.00" xmlns="http://www.w3.org/2000/svg" xmlns:xlink="http://www.w3.org/1999/xlink">
<g id="graph0" class="graph" transform="scale(1 1) rotate(0) translate(4 328)">
<polygon fill="white" stroke="transparent" points="-4,4 -4,-328 188,-328 188,4 -4,4"/>
<!-- bug -->
<g id="node1" class="node">
<title>bug</title>
<polygon fill="#ffcdd2" stroke="black" points="119,-324 65,-324 65,-288 119,-288 119,-324"/>
<text text-anchor="middle" x="92" y="-302.3" font-family="Times,serif" font-size="14.00">WA</text>
</g>
<!-- guess -->
<g id="node2" class="node">
<title>guess</title>
<polygon fill="#fff9c4" stroke="black" points="154,-252 30,-252 30,-216 154,-216 154,-252"/>
<text text-anchor="middle" x="92" y="-230.3" font-family="Times,serif" font-size="14.00">capacity = INF</text>
</g>
<!-- bug&#45;&gt;guess -->
<g id="edge1" class="edge">
<title>bug&#45;&gt;guess</title>
<path fill="none" stroke="#9e9e9e" d="M92,-287.7C92,-279.98 92,-270.71 92,-262.11"/>
<polygon fill="#9e9e9e" stroke="#9e9e9e" points="95.5,-262.1 92,-252.1 88.5,-262.1 95.5,-262.1"/>
</g>
<!-- reason -->
<g id="node3" class="node">
<title>reason</title>
<polygon fill="#fff3e0" stroke="black" points="92,-180 23.96,-162 92,-144 160.04,-162 92,-180"/>
<text text-anchor="middle" x="92" y="-158.3" font-family="Times,serif" font-size="14.00">粮食有限</text>
</g>
<!-- guess&#45;&gt;reason -->
<g id="edge2" class="edge">
<title>guess&#45;&gt;reason</title>
<path fill="none" stroke="#9e9e9e" d="M92,-215.7C92,-207.98 92,-198.71 92,-190.11"/>
<polygon fill="#9e9e9e" stroke="#9e9e9e" points="95.5,-190.1 92,-180.1 88.5,-190.1 95.5,-190.1"/>
</g>
<!-- fix -->
<g id="node4" class="node">
<title>fix</title>
<polygon fill="#c8e6c9" stroke="black" points="184,-108 0,-108 0,-72 184,-72 184,-108"/>
<text text-anchor="middle" x="92" y="-86.3" font-family="Times,serif" font-size="14.00">capacity = min(b_i, b_j)</text>
</g>
<!-- reason&#45;&gt;fix -->
<g id="edge3" class="edge">
<title>reason&#45;&gt;fix</title>
<path fill="none" stroke="#9e9e9e" d="M92,-143.7C92,-135.98 92,-126.71 92,-118.11"/>
<polygon fill="#9e9e9e" stroke="#9e9e9e" points="95.5,-118.1 92,-108.1 88.5,-118.1 95.5,-118.1"/>
</g>
<!-- ac -->
<g id="node5" class="node">
<title>ac</title>
<polygon fill="#a5d6a7" stroke="black" points="119,-36 65,-36 65,0 119,0 119,-36"/>
<text text-anchor="middle" x="92" y="-14.3" font-family="Times,serif" font-size="14.00">AC</text>
</g>
<!-- fix&#45;&gt;ac -->
<g id="edge4" class="edge">
<title>fix&#45;&gt;ac</title>
<path fill="none" stroke="#9e9e9e" d="M92,-71.7C92,-63.98 92,-54.71 92,-46.11"/>
<polygon fill="#9e9e9e" stroke="#9e9e9e" points="95.5,-46.1 92,-36.1 88.5,-46.1 95.5,-46.1"/>
</g>
</g>
</svg>
