<?xml version="1.0" encoding="UTF-8" standalone="no"?>
<!DOCTYPE svg PUBLIC "-//W3C//DTD SVG 1.1//EN"
 "http://www.w3.org/Graphics/SVG/1.1/DTD/svg11.dtd">
<!-- Generated by graphviz version 2.42.4 (0)
 -->
<!-- Title: SPFAAlgorithm Pages: 1 -->
<svg width="307pt" height="456pt"
 viewBox="0.00 0.00 307.27 455.54" xmlns="http://www.w3.org/2000/svg" xmlns:xlink="http://www.w3.org/1999/xlink">
<g id="graph0" class="graph" transform="scale(1 1) rotate(0) translate(4 451.54)">
<title>SPFAAlgorithm</title>
<polygon fill="white" stroke="transparent" points="-4,4 -4,-451.54 303.27,-451.54 303.27,4 -4,4"/>
<!-- start -->
<g id="node1" class="node">
<title>start</title>
<polygon fill="#4caf50" stroke="black" points="241.18,-447.54 187.18,-447.54 187.18,-411.54 241.18,-411.54 241.18,-447.54"/>
<text text-anchor="middle" x="214.18" y="-427.04" font-family="sans-serif" font-size="10.00" fill="white">开始</text>
</g>
<!-- init -->
<g id="node2" class="node">
<title>init</title>
<ellipse fill="#e3f2fd" stroke="black" cx="214.18" cy="-356.54" rx="61.44" ry="18"/>
<text text-anchor="middle" x="214.18" y="-354.04" font-family="sans-serif" font-size="10.00">dist[s]=0, 其余=∞</text>
</g>
<!-- start&#45;&gt;init -->
<g id="edge1" class="edge">
<title>start&#45;&gt;init</title>
<path fill="none" stroke="black" d="M214.18,-411.35C214.18,-403.33 214.18,-393.59 214.18,-384.61"/>
<polygon fill="black" stroke="black" points="217.68,-384.57 214.18,-374.57 210.68,-384.57 217.68,-384.57"/>
</g>
<!-- enqueue -->
<g id="node3" class="node">
<title>enqueue</title>
<ellipse fill="#e3f2fd" stroke="black" cx="214.18" cy="-283.54" rx="62.3" ry="18"/>
<text text-anchor="middle" x="214.18" y="-281.04" font-family="sans-serif" font-size="10.00">s 入队, inq[s]=true</text>
</g>
<!-- init&#45;&gt;enqueue -->
<g id="edge2" class="edge">
<title>init&#45;&gt;enqueue</title>
<path fill="none" stroke="black" d="M214.18,-338.35C214.18,-330.33 214.18,-320.59 214.18,-311.61"/>
<polygon fill="black" stroke="black" points="217.68,-311.57 214.18,-301.57 210.68,-311.57 217.68,-311.57"/>
</g>
<!-- empty -->
<g id="node4" class="node">
<title>empty</title>
<polygon fill="#fff9c4" stroke="black" points="214.18,-228.54 171.76,-210.54 214.18,-192.54 256.59,-210.54 214.18,-228.54"/>
<text text-anchor="middle" x="214.18" y="-208.04" font-family="sans-serif" font-size="10.00">队列空?</text>
</g>
<!-- enqueue&#45;&gt;empty -->
<g id="edge3" class="edge">
<title>enqueue&#45;&gt;empty</title>
<path fill="none" stroke="black" d="M214.18,-265.35C214.18,-257.33 214.18,-247.59 214.18,-238.61"/>
<polygon fill="black" stroke="black" points="217.68,-238.57 214.18,-228.57 210.68,-238.57 217.68,-238.57"/>
</g>
<!-- dequeue -->
<g id="node5" class="node">
<title>dequeue</title>
<ellipse fill="#e3f2fd" stroke="black" cx="84.18" cy="-128.54" rx="84.36" ry="18"/>
<text text-anchor="middle" x="84.18" y="-126.04" font-family="sans-serif" font-size="10.00">u = 队首出队, inq[u]=false</text>
</g>
<!-- empty&#45;&gt;dequeue -->
<g id="edge4" class="edge">
<title>empty&#45;&gt;dequeue</title>
<path fill="none" stroke="black" d="M197.71,-199.41C178.03,-187.3 144.56,-166.7 119.05,-151"/>
<polygon fill="black" stroke="black" points="120.74,-147.93 110.39,-145.67 117.07,-153.89 120.74,-147.93"/>
<text text-anchor="middle" x="162.18" y="-167.34" font-family="sans-serif" font-size="9.00">否</text>
</g>
<!-- end -->
<g id="node7" class="node">
<title>end</title>
<polygon fill="#ff5722" stroke="black" points="242.18,-146.54 186.18,-146.54 186.18,-110.54 242.18,-110.54 242.18,-146.54"/>
<text text-anchor="middle" x="214.18" y="-126.04" font-family="sans-serif" font-size="10.00" fill="white">算法结束</text>
</g>
<!-- empty&#45;&gt;end -->
<g id="edge7" class="edge">
<title>empty&#45;&gt;end</title>
<path fill="none" stroke="black" d="M214.18,-192.18C214.18,-181.84 214.18,-168.48 214.18,-156.76"/>
<polygon fill="black" stroke="black" points="217.68,-156.59 214.18,-146.59 210.68,-156.59 217.68,-156.59"/>
<text text-anchor="middle" x="219.18" y="-167.34" font-family="sans-serif" font-size="9.00">是</text>
</g>
<!-- relax -->
<g id="node6" class="node">
<title>relax</title>
<ellipse fill="#e8f5e9" stroke="black" cx="181.18" cy="-36.77" rx="118.17" ry="36.54"/>
<text text-anchor="middle" x="181.18" y="-50.77" font-family="sans-serif" font-size="10.00">遍历 u 的出边 (u,v):</text>
<text text-anchor="middle" x="181.18" y="-39.77" font-family="sans-serif" font-size="10.00">若 cap&gt;0 且 dist[v]&gt;dist[u]+w:</text>
<text text-anchor="middle" x="181.18" y="-28.77" font-family="sans-serif" font-size="10.00"> &#160;dist[v]=dist[u]+w, pre[v]=边</text>
<text text-anchor="middle" x="181.18" y="-17.77" font-family="sans-serif" font-size="10.00"> &#160;若 !inq[v] 则 v 入队</text>
</g>
<!-- dequeue&#45;&gt;relax -->
<g id="edge5" class="edge">
<title>dequeue&#45;&gt;relax</title>
<path fill="none" stroke="black" d="M102.42,-110.65C112.15,-101.65 124.58,-90.15 136.67,-78.96"/>
<polygon fill="black" stroke="black" points="139.17,-81.41 144.13,-72.05 134.42,-76.28 139.17,-81.41"/>
</g>
<!-- relax&#45;&gt;empty -->
<g id="edge6" class="edge">
<title>relax&#45;&gt;empty</title>
<path fill="none" stroke="black" d="M223.87,-71.42C234.88,-82.57 245.28,-95.91 251.18,-110.54 261.99,-137.37 245.45,-168.71 231.15,-188.82"/>
<polygon fill="black" stroke="black" points="228.24,-186.86 225.04,-196.96 233.84,-191.06 228.24,-186.86"/>
<text text-anchor="middle" x="263.68" y="-126.34" font-family="sans-serif" font-size="9.00">继续</text>
</g>
</g>
</svg>
